# xmcd
#
# Track frame offsets:
#	182
#	16072
#	34560
#	51107
#	69030
#	86317
#	109270
#	124535
#	143765
#	158327
#	178442
#	193512
#	211927
#	223500
#	254867
#
# Disc length: 3627
#
# Revision: 3
# Processed by: cddbd v1.5.1PL0 Copyright (c) Steve Scherf et al.
# Submitted via: EasyCD2 v3.00 - Copyright (c) 1997 Greg Leichner
# Normalized: r1:TSWAP
#
DISCID=c60e290f
DTITLE=Soul Music Collection - 10. - Il Suono Della Motor City. Motown
DYEAR=1900
DGENRE=
TTITLE0=The Commodores - Brick House
TTITLE1=Dennis Edwards - Don't Look Any Further
TTITLE2=Diana Ross - Upside Down
TTITLE3=Marvin Gaye - Let's Get It On
TTITLE4=Eddie Kendricks - Boogie Down
TTITLE5=The Commodores - Nightshift
TTITLE6=Michael Jackson - Got To Be There
TTITLE7=Johnny Gill - Rub You The Right Way
TTITLE8=Marvin Gaye - Mercy, Mercy Me (The Ecology)
TTITLE9=Smokey Robinson - Cruisin'
TTITLE10=Rick James - Super Freak (Part 1)
TTITLE11=Marvin Gaye - Got To Give It Up
TTITLE12=The Supremes - Floy Joy
TTITLE13=The Temptations - Papa Was A Rollin' Stone
TTITLE14=Marvin Gaye - What's Going On
EXTD=by David K. (Opatija City) - Croatia
EXTT0=
EXTT1=
EXTT2=
EXTT3=
EXTT4=
EXTT5=
EXTT6=
EXTT7=
EXTT8=
EXTT9=
EXTT10=
EXTT11=
EXTT12=
EXTT13=
EXTT14=
PLAYORDER=
